#!OML:ASF H:\Terrain\Patient Classification 1\Animal2\Wednesday\Animal2.ASF
:FULLY-SPECIFIED
:DEGREES
2319
root 16.2588 16.0071 8.79285 -4.53693 8.56219 -2.46794
lowerback 5.52111 0.9116 3.65118
upperback 1.01061 1.48194 2.21955
thorax -2.02089 0.723073 0.130442
lowerneck 18.8369 12.3342 20.0337
upperneck -19.5009 17.8454 -26.0594
head -4.30696 10.1276 -13.0491
rclavicle -1.56558e-014 -1.51076e-014
rhumerus -39.7086 0.407982 -77.9669
rradius 118.706
rwrist -19.8885
rhand -3.6388 4.29611
rfingers 7.12502
rthumb 22.1008 -24.4608
lclavicle -1.56558e-014 -1.51076e-014
lhumerus -43.3689 17.6315 68.4521
lradius 124.318
lwrist 93.4586
lhand -43.8587 52.7939
lfingers 7.12502
lthumb -16.6852 82.0969
rfemur -5.1923 17.8853 11.0088
rtibia 48.4775
rfoot -35.8198 -13.0356
rtoes -15.1613
lfemur -25.0591 -3.74764 -1.08483
ltibia 54.754
lfoot -27.3661 0.343154
ltoes -43.157
2320
root 16.2522 15.9807 8.80327 -4.76848 8.52787 -2.52667
lowerback 5.48977 1.02678 3.83323
upperback 1.07845 1.64066 2.19144
thorax -1.92365 0.80306 -0.00964098
lowerneck 18.6071 12.3296 19.7745
upperneck -19.1438 17.7961 -25.7903
head -4.23617 10.0845 -12.8636
rclavicle 8.82029e-015 -1.98785e-015
rhumerus -39.1371 0.456316 -77.6573
rradius 118.889
rwrist -19.8628
rhand -3.82212 5.38303
rfingers 7.12502
rthumb 21.9248 -23.3946
lclavicle 8.82029e-015 -1.98785e-015
lhumerus -44.0533 17.5646 68.5618
lradius 124.279
lwrist 93.8139
lhand -43.7669 52.3573
lfingers 7.12502
lthumb -16.5968 81.6676
rfemur -5.1196 18.0937 11.2097
rtibia 48.9175
rfoot -35.9644 -13.2048
rtoes -15.0183
lfemur -24.9627 -3.75709 -0.960419
ltibia 55.0591
lfoot -27.5198 0.189938
ltoes -42.8963
2321
root 16.2485 15.9652 8.81719 -4.89878 8.60993 -2.16729
lowerback 5.49709 1.14796 3.71908
upperback 1.02623 1.79175 1.94227
thorax -1.97281 0.877103 -0.213329
lowerneck 18.6738 12.1405 19.8685
upperneck -18.809 17.6134 -25.6856
head -4.19875 9.98278 -12.8355
rclavicle 5.14557e-014 4.37326e-015
rhumerus -38.8602 0.365259 -77.577
rradius 119.048
rwrist -19.779
rhand -4.25837 6.40382
rfingers 7.12502
rthumb 21.5058 -22.4223
lclavicle 5.14557e-014 4.37326e-015
lhumerus -44.7747 17.2823 68.488
lradius 124.189
lwrist 94.2457
lhand -43.299 51.8908
lfingers 7.12502
lthumb -16.1462 81.2382
rfemur -4.97756 18.1925 10.9341
rtibia 49.332
rfoot -36.0495 -13.7239
rtoes -15.6746
lfemur -24.8908 -3.9539 -1.3733
ltibia 55.3517
lfoot -27.6459 0.195525
ltoes -42.6133
2322
root 16.243 15.9462 8.83165 -4.99297 8.76745 -1.85397
lowerback 5.47246 1.20478 3.64968
upperback 0.943952 1.85863 1.67991
thorax -2.03518 0.908343 -0.449423
lowerneck 18.7044 11.982 20.0286
upperneck -18.4651 17.4895 -25.5547
head -4.13465 9.90203 -12.7972
rclavicle -6.83633e-015 4.77083e-015
rhumerus -38.6885 0.336885 -77.6645
rradius 119.318
rwrist -19.8818
rhand -4.82691 7.05031
rfingers 7.12502
rthumb 20.9597 -21.8372
lclavicle -6.83633e-015 4.77083e-015
lhumerus -45.4849 17.1559 68.1789
lradius 124.203
lwrist 94.4898
lhand -43.1332 51.6763
lfingers 7.12502
lthumb -15.9867 81.0366
rfemur -4.88983 18.2446 10.6977
rtibia 49.7415
rfoot -36.2564 -14.0987
rtoes -16.2086
lfemur -24.9216 -4.08906 -1.73137
ltibia 55.6629
lfoot -27.808 0.0192624
ltoes -41.9218
2323
root 16.2314 15.9178 8.84389 -5.22231 8.93175 -1.93449
lowerback 5.53796 1.23129 3.87676
upperback 0.859524 1.91146 1.58903
thorax -2.14646 0.930091 -0.676099
lowerneck 18.7528 11.8676 20.1094
upperneck -18.1774 17.4027 -25.4305
head -4.08806 9.84556 -12.7538
rclavicle 2.08351e-014 1.19271e-014
rhumerus -38.5971 0.386357 -77.6522
rradius 119.702
rwrist -20.0075
rhand -5.47567 7.64117
rfingers 7.12502
rthumb 20.3363 -21.3141
lclavicle 2.08351e-014 1.19271e-014
lhumerus -46.4566 17.0259 67.8203
lradius 124.427
lwrist 94.6723
lhand -43.0992 51.3694
lfingers 7.12502
lthumb -15.9539 80.7323
rfemur -4.76226 18.2899 10.9527
rtibia 50.1488
rfoot -36.491 -14.1545
rtoes -15.7014
lfemur -24.949 -4.15071 -1.58612
ltibia 56.029
lfoot -28.0525 -0.294023
ltoes -41.3374
